# xmcd
#
# Track frame offsets:
# 150
# 6670
# 28802
# 31440
# 48867
# 51787
# 60650
# 68385
# 75865
# 85952
# 92272
# 112600
# 113072
# 131797
# 140712
# 144262
# 165710
# 167842
# 186345
# 187287
# 201940
# 208652
# 216012
# 222150
# 229482
# 240192
# 243962
# 262252
# 263382
# 277787
# 281950
# 283450
# 285882
#
# Disc length: 4069 seconds
#
#
# Revision: 0
# Processed by: cddbd v1.5PL3 Copyright (c) Steve Scherf et al.
# Submitted via: FreeRIP 2.20 
#
DISCID=e60fe321
DTITLE=Irigy Hónaljmirigy - A csillagok háborognak
DYEAR=1996
DGENRE=
TTITLE0=ELSÕ SZÁM - Zûr az ûrben
TTITLE1=ROCKANT VÁLOGATOTT - A csillagok háborognak
TTITLE2=
TTITLE3=TANKSAPKA - Jönek a számból(Koncertfelvétel)
TTITLE4=EZ A DIVAT
TTITLE5=TENYÉRBEMÁSZÓK - Bat Man
TTITLE6=KORPA DIET - Énekelj tercet
TTITLE7=MOHÓ PARTY - Gyere és tátogj
TTITLE8=TBC - Megdumállak még
TTITLE9=
TTITLE10=HORPADT CSÁRLI - Képzeld a víz kiver
TTITLE11=
TTITLE12=durrogO-MEN - King Fingers
TTITLE13=RODLI JÓDLI
TTITLE14=
TTITLE15=EX-SCHÖN - Gettó dettó
TTITLE16=
TTITLE17=CSIPKERÓZSI - Szellemvonat
TTITLE18=
TTITLE19=KIMNYIVÁK - Furcsa ez a srác
TTITLE20=RÉGI CSIBÉSZEK
TTITLE21=ORÁL - Homok és sóder
TTITLE22=OLDS MOBIL - Rocktróger
TTITLE23=TIRAMISU - Teveháton
TTITLE24=KARTÁRS-GO - Szigeti veszedelem
TTITLE25=
TTITLE26=KIKIRIKI - Értetlenek
TTITLE27=
TTITLE28=A SZÁZFOGÚ CIGÁNYZENEKAR
TTITLE29=UTOLSÓ SZÁM - Zûr az ûrben
TTITLE30=
TTITLE31=
TTITLE32=AJÁNDÉK DAL - A Csillagszórók háborognak
EXTD=
EXTT0=
EXTT1=
EXTT2=
EXTT3=
EXTT4=
EXTT5=
EXTT6=
EXTT7=
EXTT8=
EXTT9=
EXTT10=
EXTT11=
EXTT12=
EXTT13=
EXTT14=
EXTT15=
EXTT16=
EXTT17=
EXTT18=
EXTT19=
EXTT20=
EXTT21=
EXTT22=
EXTT23=
EXTT24=
EXTT25=
EXTT26=
EXTT27=
EXTT28=
EXTT29=
EXTT30=
EXTT31=
EXTT32=
PLAYORDER=
